<?xml version="1.0" encoding="iso-8859-1"?>
<!-- Generator: Adobe Illustrator 16.0.0, SVG Export Plug-In . SVG Version: 6.00 Build 0)  -->
<!DOCTYPE svg PUBLIC "-//W3C//DTD SVG 1.1//EN" "http://www.w3.org/Graphics/SVG/1.1/DTD/svg11.dtd">
<svg version="1.1" id="Capa_1" xmlns="http://www.w3.org/2000/svg" xmlns:xlink="http://www.w3.org/1999/xlink" x="0px" y="0px"
	 width="485.666px" height="485.666px" viewBox="0 0 485.666 485.666" style="enable-background:new 0 0 485.666 485.666;"
	 xml:space="preserve">
<g>
	<g>
		<path d="M485.015,425.339c-0.675-12.079-6.263-23.347-15.46-31.204L344.844,287.641c18.688-29.097,29.531-63.676,29.531-100.743
			C374.375,83.839,290.535,0,187.478,0C84.415,0,0.581,83.839,0.581,186.898c0,103.058,83.834,186.897,186.897,186.897
			c32.663,0,63.394-8.434,90.132-23.218l118.798,121.731c8.448,8.656,20.064,13.481,32.165,13.355
			c12.084-0.125,23.602-5.192,31.868-14.021l12.691-13.574C481.4,449.236,485.694,437.413,485.015,425.339z M56.212,186.898
			c0-72.379,58.893-131.266,131.266-131.266c72.378,0,131.26,58.887,131.26,131.266c0,72.377-58.882,131.265-131.26,131.265
			C115.104,318.163,56.212,259.275,56.212,186.898z"/>
		<path d="M258.34,162.595h-46.232v-46.559c0-13.487-10.952-24.459-24.432-24.459c-13.492,0-24.433,10.973-24.433,24.459v46.559
			h-46.627c-13.485,0-24.458,10.957-24.458,24.433c0,13.485,10.973,24.432,24.458,24.432h46.627v46.299
			c0,13.481,10.941,24.458,24.433,24.458c13.479,0,24.432-10.977,24.432-24.458V211.46h46.232c13.481,0,24.453-10.947,24.453-24.432
			C282.793,173.552,271.821,162.595,258.34,162.595z"/>
	</g>
</g>
<g>
</g>
<g>
</g>
<g>
</g>
<g>
</g>
<g>
</g>
<g>
</g>
<g>
</g>
<g>
</g>
<g>
</g>
<g>
</g>
<g>
</g>
<g>
</g>
<g>
</g>
<g>
</g>
<g>
</g>
</svg>
